<svg width="0" height="0" class="hidden">
  <symbol fill="none" xmlns="http://www.w3.org/2000/svg" viewBox="0 0 14 16" id="filter">
    <path fill-rule="evenodd" clip-rule="evenodd" d="M11.9882 1.52032C8.67292 1.14979 5.32673 1.14979 2.01149 1.52032C1.96067 1.52615 1.91234 1.54551 1.87155 1.57638C1.83076 1.60726 1.799 1.64851 1.77959 1.69584C1.76018 1.74318 1.75383 1.79485 1.7612 1.84548C1.76857 1.8961 1.78939 1.94382 1.82149 1.98365L4.75233 5.60699C5.80213 6.90482 6.37485 8.52355 6.37483 10.1928V12.6003L7.62483 13.517V10.192C7.62499 8.52301 8.1977 6.90459 9.24733 5.60699L12.1782 1.98365C12.2103 1.94382 12.2311 1.8961 12.2385 1.84548C12.2458 1.79485 12.2395 1.74318 12.2201 1.69584C12.2007 1.64851 12.1689 1.60726 12.1281 1.57638C12.0873 1.54551 12.039 1.52615 11.9882 1.52032ZM1.87316 0.277819C5.28061 -0.103023 8.71988 -0.103023 12.1273 0.277819C13.3323 0.412819 13.9132 1.82615 13.1507 2.76949L10.219 6.39282C9.34916 7.46827 8.87468 8.80963 8.87483 10.1928V14.7503C8.87491 14.8659 8.84294 14.9792 8.78248 15.0777C8.72201 15.1762 8.63542 15.256 8.53232 15.3083C8.42922 15.3605 8.31365 15.3832 8.19846 15.3737C8.08328 15.3642 7.97298 15.3229 7.87983 15.2545L5.37983 13.4212C5.30072 13.363 5.23641 13.2871 5.19211 13.1995C5.1478 13.1119 5.12475 13.0151 5.12483 12.917V10.192C5.12483 8.80865 4.64983 7.46782 3.78066 6.39199L0.849827 2.77032C0.0864935 1.82699 0.666494 0.412819 1.87316 0.277819Z" fill="#44486D"></path>
  </symbol>
  <symbol fill="none" xmlns="http://www.w3.org/2000/svg" viewBox="0 0 17 17" id="Frame">
    <g clip-path="url(#clip0_25_15272)">
      <mask id="path-1-outside-1_25_15272" maskUnits="userSpaceOnUse" x="-0.0976562" y="-0.0864258" width="17" height="17" fill="black">
        <rect fill="white" x="-0.0976562" y="-0.0864258" width="17" height="17"></rect>
        <path d="M11.2686 10.2852H9.37433L9.76897 8.97377C9.88968 8.58165 9.85172 8.15781 9.66326 7.79337C9.4748 7.42894 9.15087 7.15299 8.76111 7.02484C8.64917 6.98795 8.53082 6.97456 8.41347 6.98553C8.29612 6.9965 8.1823 7.03158 8.07914 7.08857C7.97597 7.14557 7.88569 7.22325 7.81394 7.31676C7.7422 7.41027 7.69053 7.51758 7.66218 7.63199L7.60147 7.88699C7.3725 8.80585 6.89823 9.64526 6.22933 10.3156L5.88326 10.6556C5.79532 10.5448 5.68369 10.4551 5.55656 10.3931C5.42944 10.3311 5.29004 10.2984 5.14861 10.2973H4.7054C4.45629 10.2973 4.2172 10.3954 4.03992 10.5704C3.86265 10.7455 3.76145 10.9833 3.75826 11.2323V15.1423C3.75826 15.3935 3.85804 15.6345 4.03567 15.8121C4.21329 15.9897 4.4542 16.0895 4.7054 16.0895H5.14861C5.31165 16.0891 5.47179 16.0464 5.61335 15.9655C5.7549 15.8846 5.87302 15.7683 5.95611 15.6281L6.04111 15.6706C6.58985 15.9446 7.19454 16.088 7.8079 16.0895H9.98754C10.3479 16.0912 10.703 16.0034 11.0209 15.8338C11.3389 15.6642 11.6097 15.4183 11.809 15.1181C12.2331 14.4838 12.4593 13.7378 12.4586 12.9748V11.4631C12.4586 11.3074 12.4278 11.1532 12.3678 11.0095C12.3079 10.8658 12.22 10.7354 12.1093 10.6259C11.9987 10.5163 11.8674 10.4298 11.7231 10.3714C11.5788 10.3129 11.4243 10.2836 11.2686 10.2852ZM5.46433 15.1423C5.46433 15.2325 5.4285 15.319 5.36474 15.3828C5.30098 15.4465 5.2145 15.4823 5.12433 15.4823H4.7054C4.61522 15.4823 4.52874 15.4465 4.46498 15.3828C4.40122 15.319 4.3654 15.2325 4.3654 15.1423V11.2323C4.3654 11.1422 4.40122 11.0557 4.46498 10.9919C4.52874 10.9282 4.61522 10.8923 4.7054 10.8923H5.14861C5.23451 10.8985 5.31488 10.937 5.37348 11.0001C5.43208 11.0632 5.46455 11.1462 5.46433 11.2323V15.1423ZM11.8393 12.9748C11.8419 13.6227 11.6517 14.2568 11.2929 14.7963C11.1494 15.0109 10.9552 15.1868 10.7275 15.3086C10.4999 15.4304 10.2457 15.4942 9.98754 15.4945H7.8079C7.28953 15.494 6.77832 15.3734 6.31433 15.1423L6.07147 15.0209V11.2931L6.63004 10.7345C7.37738 9.98728 7.90822 9.05148 8.16611 8.02663L8.22683 7.7777C8.24485 7.7111 8.28851 7.65435 8.34826 7.61984C8.3789 7.60647 8.41197 7.59957 8.4454 7.59957C8.47883 7.59957 8.5119 7.60647 8.54254 7.61984C8.66219 7.65963 8.77282 7.72262 8.86811 7.8052C8.9634 7.88778 9.04147 7.98833 9.09786 8.10111C9.15425 8.21389 9.18785 8.33668 9.19674 8.46246C9.20564 8.58824 9.18964 8.71454 9.14968 8.83413L8.63968 10.5402C8.62649 10.5854 8.62401 10.6331 8.63244 10.6795C8.64087 10.7259 8.65998 10.7696 8.68826 10.8073C8.71584 10.8458 8.75237 10.8769 8.79468 10.8981C8.83699 10.9192 8.88382 10.9298 8.93111 10.9288H11.2322C11.3071 10.9288 11.3813 10.9435 11.4506 10.9722C11.5198 11.0009 11.5827 11.0429 11.6357 11.0959C11.6887 11.1489 11.7308 11.2118 11.7595 11.2811C11.7881 11.3503 11.8029 11.4245 11.8029 11.4995L11.8393 12.9748ZM6.67861 4.43234L6.48433 5.55556C6.46096 5.67986 6.4737 5.80826 6.52105 5.92555C6.56839 6.04283 6.64836 6.14409 6.75147 6.21734C6.86561 6.30243 7.00376 6.34919 7.14611 6.35091C7.25601 6.34917 7.36404 6.32217 7.46183 6.27199L8.50004 5.7377L9.51397 6.27199C9.62546 6.33086 9.75134 6.35697 9.87704 6.3473C10.0028 6.33763 10.1232 6.29257 10.2243 6.21734C10.3264 6.14457 10.4057 6.0443 10.453 5.92822C10.5003 5.81213 10.5136 5.68501 10.4915 5.56163L10.3215 4.43234L11.1168 3.64306C11.2087 3.55618 11.274 3.44502 11.3052 3.3225C11.3363 3.19997 11.3321 3.07112 11.2929 2.95091C11.2537 2.83084 11.1818 2.72406 11.0852 2.64256C10.9887 2.56106 10.8714 2.50805 10.7465 2.48949L9.61111 2.32556L9.10718 1.28734C9.0505 1.17495 8.96372 1.0805 8.85653 1.01451C8.74933 0.948516 8.62592 0.913574 8.50004 0.913574C8.37416 0.913574 8.25075 0.948516 8.14356 1.01451C8.03636 1.0805 7.94959 1.17495 7.8929 1.28734L7.38897 2.31341L6.25361 2.47734C6.12866 2.49591 6.01135 2.54892 5.91484 2.63042C5.81832 2.71192 5.74642 2.81869 5.70718 2.93877C5.66549 3.06064 5.65993 3.19197 5.69117 3.31693C5.72241 3.44189 5.78912 3.55514 5.88326 3.64306L6.67861 4.43234ZM6.31433 3.07841L7.60754 2.8902C7.66596 2.89398 7.72419 2.88045 7.77495 2.85129C7.82571 2.82213 7.86674 2.77864 7.8929 2.72627L8.50004 1.55449C8.50537 1.54286 8.51392 1.53301 8.52468 1.5261C8.53545 1.51919 8.54797 1.51552 8.56076 1.51552C8.57354 1.51552 8.58606 1.51919 8.59683 1.5261C8.60759 1.53301 8.61614 1.54286 8.62147 1.55449L9.22861 2.72627C9.25043 2.77061 9.28295 2.80881 9.32323 2.83743C9.36351 2.86605 9.41028 2.88419 9.45933 2.8902L10.7525 3.07841C10.7651 3.08098 10.7768 3.08682 10.7864 3.09535C10.796 3.10388 10.8032 3.11479 10.8072 3.12699C10.813 3.13714 10.8161 3.14866 10.8161 3.16038C10.8161 3.1721 10.813 3.18362 10.8072 3.19377L9.87218 4.10449C9.83683 4.13982 9.81018 4.18291 9.79438 4.23034C9.77857 4.27776 9.77403 4.32822 9.78111 4.3777L10.0058 5.65877C10.0099 5.67169 10.0091 5.68567 10.0035 5.69802C9.99784 5.71036 9.98784 5.72018 9.9754 5.72556C9.96489 5.73344 9.95211 5.7377 9.93897 5.7377C9.92583 5.7377 9.91305 5.73344 9.90254 5.72556L8.74897 5.11841C8.70632 5.09448 8.65823 5.08191 8.60933 5.08191C8.56042 5.08191 8.51233 5.09448 8.46968 5.11841L7.31004 5.72556C7.30048 5.73294 7.28873 5.73695 7.27665 5.73695C7.26456 5.73695 7.25282 5.73294 7.24326 5.72556C7.23081 5.72018 7.22081 5.71036 7.2152 5.69802C7.20959 5.68567 7.20877 5.67169 7.2129 5.65877L7.43754 4.3777C7.44463 4.32822 7.44008 4.27776 7.42428 4.23034C7.40847 4.18291 7.38183 4.13982 7.34647 4.10449L6.41147 3.19377C6.40561 3.18362 6.40252 3.1721 6.40252 3.16038C6.40252 3.14866 6.40561 3.13714 6.41147 3.12699C6.3957 3.12788 6.38007 3.12363 6.36693 3.11487C6.35379 3.10611 6.34385 3.09331 6.33861 3.07841H6.31433ZM4.45647 8.04484C4.54691 8.04649 4.63657 8.02792 4.71891 7.99047C4.80124 7.95302 4.87417 7.89765 4.93236 7.8284C4.99056 7.75915 5.03254 7.67778 5.05525 7.59022C5.07796 7.50267 5.08081 7.41114 5.06361 7.32234L4.89968 6.39949L5.57968 5.7377C5.66536 5.65908 5.72665 5.5575 5.75627 5.44506C5.7859 5.33261 5.78261 5.21403 5.7468 5.1034C5.71099 4.99277 5.64416 4.89475 5.55426 4.82099C5.46437 4.74724 5.35518 4.70085 5.23968 4.68734L4.31076 4.55377L3.89183 3.70984C3.83593 3.61274 3.75543 3.53208 3.65843 3.476C3.56143 3.41991 3.45137 3.39038 3.33933 3.39038C3.22728 3.39038 3.11722 3.41991 3.02022 3.476C2.92323 3.53208 2.84272 3.61274 2.78683 3.70984L2.3679 4.55377L1.43897 4.68734C1.32347 4.70085 1.21429 4.74724 1.12439 4.82099C1.03449 4.89475 0.967664 4.99277 0.931853 5.1034C0.896042 5.21403 0.892753 5.33261 0.922379 5.44506C0.952004 5.5575 1.0133 5.65908 1.09897 5.7377L1.7729 6.39949L1.60897 7.32234C1.58794 7.43676 1.60022 7.5548 1.64435 7.66244C1.68848 7.77008 1.7626 7.86277 1.8579 7.92949C1.95097 7.99752 2.0615 8.03764 2.17654 8.04517C2.29159 8.0527 2.40639 8.02731 2.50754 7.97199L3.33933 7.53484L4.17111 7.97199C4.25881 8.01932 4.35681 8.04434 4.45647 8.04484ZM3.33933 6.89127C3.29039 6.89097 3.24224 6.90353 3.19968 6.9277L2.21004 7.42556L2.42861 6.34484C2.43199 6.29288 2.42271 6.24086 2.40156 6.19328C2.38041 6.14569 2.34802 6.10394 2.30718 6.07163L1.52397 5.28841L2.61683 5.13056C2.66514 5.12466 2.71115 5.1065 2.75047 5.07781C2.78979 5.04912 2.82111 5.01084 2.84147 4.96663L3.3454 3.97699L3.83718 4.96663C3.85754 5.01084 3.88886 5.04912 3.92818 5.07781C3.9675 5.1065 4.01351 5.12466 4.06183 5.13056L5.15468 5.30663L4.37147 6.07163C4.33611 6.10697 4.30947 6.15005 4.29366 6.19748C4.27785 6.2449 4.27331 6.29536 4.2804 6.34484L4.45647 7.4377L3.47897 6.9277C3.43642 6.90353 3.38826 6.89097 3.33933 6.89127ZM16.059 5.10627C16.0243 4.9964 15.9591 4.89867 15.8709 4.82448C15.7827 4.7503 15.6753 4.70274 15.5611 4.68734L14.6322 4.55377L14.2133 3.70984C14.1574 3.61274 14.0769 3.53208 13.9799 3.476C13.8829 3.41991 13.7728 3.39038 13.6608 3.39038C13.5487 3.39038 13.4386 3.41991 13.3417 3.476C13.2447 3.53208 13.1642 3.61274 13.1083 3.70984L12.6893 4.55377L11.7604 4.68734C11.6449 4.70085 11.5357 4.74724 11.4458 4.82099C11.3559 4.89475 11.2891 4.99277 11.2533 5.1034C11.2175 5.21403 11.2142 5.33261 11.2438 5.44506C11.2734 5.5575 11.3347 5.65908 11.4204 5.7377L12.0943 6.39949L11.9304 7.32234C11.9094 7.43676 11.9216 7.5548 11.9658 7.66244C12.0099 7.77008 12.084 7.86277 12.1793 7.92949C12.2724 7.99752 12.3829 8.03764 12.498 8.04517C12.613 8.0527 12.7278 8.02731 12.829 7.97199L13.6608 7.53484L14.4925 7.97199C14.5802 8.01932 14.6782 8.04434 14.7779 8.04484C14.8683 8.04649 14.958 8.02792 15.0403 7.99047C15.1227 7.95302 15.1956 7.89765 15.2538 7.8284C15.312 7.75915 15.354 7.67778 15.3767 7.59022C15.3994 7.50267 15.4022 7.41114 15.385 7.32234L15.2211 6.39949L15.895 5.7377C15.9796 5.65896 16.04 5.55772 16.069 5.44587C16.0981 5.33402 16.0946 5.21621 16.059 5.10627ZM14.6929 6.07163C14.6575 6.10697 14.6309 6.15005 14.6151 6.19748C14.5993 6.2449 14.5947 6.29536 14.6018 6.34484L14.7779 7.4377L13.8004 6.9277C13.7577 6.90377 13.7097 6.8912 13.6608 6.8912C13.6118 6.8912 13.5638 6.90377 13.5211 6.9277L12.5315 7.42556L12.75 6.34484C12.7534 6.29288 12.7441 6.24086 12.723 6.19328C12.7018 6.14569 12.6694 6.10394 12.6286 6.07163L11.8454 5.28841L12.9383 5.13056C12.9866 5.12466 13.0326 5.1065 13.0719 5.07781C13.1112 5.04912 13.1425 5.01084 13.1629 4.96663L13.6668 3.97699L14.1586 4.96663C14.179 5.01084 14.2103 5.04912 14.2496 5.07781C14.2889 5.1065 14.3349 5.12466 14.3833 5.13056L15.4761 5.30663L14.6929 6.07163Z"></path>
      </mask>
      <path d="M11.2686 10.2852H9.37433L9.76897 8.97377C9.88968 8.58165 9.85172 8.15781 9.66326 7.79337C9.4748 7.42894 9.15087 7.15299 8.76111 7.02484C8.64917 6.98795 8.53082 6.97456 8.41347 6.98553C8.29612 6.9965 8.1823 7.03158 8.07914 7.08857C7.97597 7.14557 7.88569 7.22325 7.81394 7.31676C7.7422 7.41027 7.69053 7.51758 7.66218 7.63199L7.60147 7.88699C7.3725 8.80585 6.89823 9.64526 6.22933 10.3156L5.88326 10.6556C5.79532 10.5448 5.68369 10.4551 5.55656 10.3931C5.42944 10.3311 5.29004 10.2984 5.14861 10.2973H4.7054C4.45629 10.2973 4.2172 10.3954 4.03992 10.5704C3.86265 10.7455 3.76145 10.9833 3.75826 11.2323V15.1423C3.75826 15.3935 3.85804 15.6345 4.03567 15.8121C4.21329 15.9897 4.4542 16.0895 4.7054 16.0895H5.14861C5.31165 16.0891 5.47179 16.0464 5.61335 15.9655C5.7549 15.8846 5.87302 15.7683 5.95611 15.6281L6.04111 15.6706C6.58985 15.9446 7.19454 16.088 7.8079 16.0895H9.98754C10.3479 16.0912 10.703 16.0034 11.0209 15.8338C11.3389 15.6642 11.6097 15.4183 11.809 15.1181C12.2331 14.4838 12.4593 13.7378 12.4586 12.9748V11.4631C12.4586 11.3074 12.4278 11.1532 12.3678 11.0095C12.3079 10.8658 12.22 10.7354 12.1093 10.6259C11.9987 10.5163 11.8674 10.4298 11.7231 10.3714C11.5788 10.3129 11.4243 10.2836 11.2686 10.2852ZM5.46433 15.1423C5.46433 15.2325 5.4285 15.319 5.36474 15.3828C5.30098 15.4465 5.2145 15.4823 5.12433 15.4823H4.7054C4.61522 15.4823 4.52874 15.4465 4.46498 15.3828C4.40122 15.319 4.3654 15.2325 4.3654 15.1423V11.2323C4.3654 11.1422 4.40122 11.0557 4.46498 10.9919C4.52874 10.9282 4.61522 10.8923 4.7054 10.8923H5.14861C5.23451 10.8985 5.31488 10.937 5.37348 11.0001C5.43208 11.0632 5.46455 11.1462 5.46433 11.2323V15.1423ZM11.8393 12.9748C11.8419 13.6227 11.6517 14.2568 11.2929 14.7963C11.1494 15.0109 10.9552 15.1868 10.7275 15.3086C10.4999 15.4304 10.2457 15.4942 9.98754 15.4945H7.8079C7.28953 15.494 6.77832 15.3734 6.31433 15.1423L6.07147 15.0209V11.2931L6.63004 10.7345C7.37738 9.98728 7.90822 9.05148 8.16611 8.02663L8.22683 7.7777C8.24485 7.7111 8.28851 7.65435 8.34826 7.61984C8.3789 7.60647 8.41197 7.59957 8.4454 7.59957C8.47883 7.59957 8.5119 7.60647 8.54254 7.61984C8.66219 7.65963 8.77282 7.72262 8.86811 7.8052C8.9634 7.88778 9.04147 7.98833 9.09786 8.10111C9.15425 8.21389 9.18785 8.33668 9.19674 8.46246C9.20564 8.58824 9.18964 8.71454 9.14968 8.83413L8.63968 10.5402C8.62649 10.5854 8.62401 10.6331 8.63244 10.6795C8.64087 10.7259 8.65998 10.7696 8.68826 10.8073C8.71584 10.8458 8.75237 10.8769 8.79468 10.8981C8.83699 10.9192 8.88382 10.9298 8.93111 10.9288H11.2322C11.3071 10.9288 11.3813 10.9435 11.4506 10.9722C11.5198 11.0009 11.5827 11.0429 11.6357 11.0959C11.6887 11.1489 11.7308 11.2118 11.7595 11.2811C11.7881 11.3503 11.8029 11.4245 11.8029 11.4995L11.8393 12.9748ZM6.67861 4.43234L6.48433 5.55556C6.46096 5.67986 6.4737 5.80826 6.52105 5.92555C6.56839 6.04283 6.64836 6.14409 6.75147 6.21734C6.86561 6.30243 7.00376 6.34919 7.14611 6.35091C7.25601 6.34917 7.36404 6.32217 7.46183 6.27199L8.50004 5.7377L9.51397 6.27199C9.62546 6.33086 9.75134 6.35697 9.87704 6.3473C10.0028 6.33763 10.1232 6.29257 10.2243 6.21734C10.3264 6.14457 10.4057 6.0443 10.453 5.92822C10.5003 5.81213 10.5136 5.68501 10.4915 5.56163L10.3215 4.43234L11.1168 3.64306C11.2087 3.55618 11.274 3.44502 11.3052 3.3225C11.3363 3.19997 11.3321 3.07112 11.2929 2.95091C11.2537 2.83084 11.1818 2.72406 11.0852 2.64256C10.9887 2.56106 10.8714 2.50805 10.7465 2.48949L9.61111 2.32556L9.10718 1.28734C9.0505 1.17495 8.96372 1.0805 8.85653 1.01451C8.74933 0.948516 8.62592 0.913574 8.50004 0.913574C8.37416 0.913574 8.25075 0.948516 8.14356 1.01451C8.03636 1.0805 7.94959 1.17495 7.8929 1.28734L7.38897 2.31341L6.25361 2.47734C6.12866 2.49591 6.01135 2.54892 5.91484 2.63042C5.81832 2.71192 5.74642 2.81869 5.70718 2.93877C5.66549 3.06064 5.65993 3.19197 5.69117 3.31693C5.72241 3.44189 5.78912 3.55514 5.88326 3.64306L6.67861 4.43234ZM6.31433 3.07841L7.60754 2.8902C7.66596 2.89398 7.72419 2.88045 7.77495 2.85129C7.82571 2.82213 7.86674 2.77864 7.8929 2.72627L8.50004 1.55449C8.50537 1.54286 8.51392 1.53301 8.52468 1.5261C8.53545 1.51919 8.54797 1.51552 8.56076 1.51552C8.57354 1.51552 8.58606 1.51919 8.59683 1.5261C8.60759 1.53301 8.61614 1.54286 8.62147 1.55449L9.22861 2.72627C9.25043 2.77061 9.28295 2.80881 9.32323 2.83743C9.36351 2.86605 9.41028 2.88419 9.45933 2.8902L10.7525 3.07841C10.7651 3.08098 10.7768 3.08682 10.7864 3.09535C10.796 3.10388 10.8032 3.11479 10.8072 3.12699C10.813 3.13714 10.8161 3.14866 10.8161 3.16038C10.8161 3.1721 10.813 3.18362 10.8072 3.19377L9.87218 4.10449C9.83683 4.13982 9.81018 4.18291 9.79438 4.23034C9.77857 4.27776 9.77403 4.32822 9.78111 4.3777L10.0058 5.65877C10.0099 5.67169 10.0091 5.68567 10.0035 5.69802C9.99784 5.71036 9.98784 5.72018 9.9754 5.72556C9.96489 5.73344 9.95211 5.7377 9.93897 5.7377C9.92583 5.7377 9.91305 5.73344 9.90254 5.72556L8.74897 5.11841C8.70632 5.09448 8.65823 5.08191 8.60933 5.08191C8.56042 5.08191 8.51233 5.09448 8.46968 5.11841L7.31004 5.72556C7.30048 5.73294 7.28873 5.73695 7.27665 5.73695C7.26456 5.73695 7.25282 5.73294 7.24326 5.72556C7.23081 5.72018 7.22081 5.71036 7.2152 5.69802C7.20959 5.68567 7.20877 5.67169 7.2129 5.65877L7.43754 4.3777C7.44463 4.32822 7.44008 4.27776 7.42428 4.23034C7.40847 4.18291 7.38183 4.13982 7.34647 4.10449L6.41147 3.19377C6.40561 3.18362 6.40252 3.1721 6.40252 3.16038C6.40252 3.14866 6.40561 3.13714 6.41147 3.12699C6.3957 3.12788 6.38007 3.12363 6.36693 3.11487C6.35379 3.10611 6.34385 3.09331 6.33861 3.07841H6.31433ZM4.45647 8.04484C4.54691 8.04649 4.63657 8.02792 4.71891 7.99047C4.80124 7.95302 4.87417 7.89765 4.93236 7.8284C4.99056 7.75915 5.03254 7.67778 5.05525 7.59022C5.07796 7.50267 5.08081 7.41114 5.06361 7.32234L4.89968 6.39949L5.57968 5.7377C5.66536 5.65908 5.72665 5.5575 5.75627 5.44506C5.7859 5.33261 5.78261 5.21403 5.7468 5.1034C5.71099 4.99277 5.64416 4.89475 5.55426 4.82099C5.46437 4.74724 5.35518 4.70085 5.23968 4.68734L4.31076 4.55377L3.89183 3.70984C3.83593 3.61274 3.75543 3.53208 3.65843 3.476C3.56143 3.41991 3.45137 3.39038 3.33933 3.39038C3.22728 3.39038 3.11722 3.41991 3.02022 3.476C2.92323 3.53208 2.84272 3.61274 2.78683 3.70984L2.3679 4.55377L1.43897 4.68734C1.32347 4.70085 1.21429 4.74724 1.12439 4.82099C1.03449 4.89475 0.967664 4.99277 0.931853 5.1034C0.896042 5.21403 0.892753 5.33261 0.922379 5.44506C0.952004 5.5575 1.0133 5.65908 1.09897 5.7377L1.7729 6.39949L1.60897 7.32234C1.58794 7.43676 1.60022 7.5548 1.64435 7.66244C1.68848 7.77008 1.7626 7.86277 1.8579 7.92949C1.95097 7.99752 2.0615 8.03764 2.17654 8.04517C2.29159 8.0527 2.40639 8.02731 2.50754 7.97199L3.33933 7.53484L4.17111 7.97199C4.25881 8.01932 4.35681 8.04434 4.45647 8.04484ZM3.33933 6.89127C3.29039 6.89097 3.24224 6.90353 3.19968 6.9277L2.21004 7.42556L2.42861 6.34484C2.43199 6.29288 2.42271 6.24086 2.40156 6.19328C2.38041 6.14569 2.34802 6.10394 2.30718 6.07163L1.52397 5.28841L2.61683 5.13056C2.66514 5.12466 2.71115 5.1065 2.75047 5.07781C2.78979 5.04912 2.82111 5.01084 2.84147 4.96663L3.3454 3.97699L3.83718 4.96663C3.85754 5.01084 3.88886 5.04912 3.92818 5.07781C3.9675 5.1065 4.01351 5.12466 4.06183 5.13056L5.15468 5.30663L4.37147 6.07163C4.33611 6.10697 4.30947 6.15005 4.29366 6.19748C4.27785 6.2449 4.27331 6.29536 4.2804 6.34484L4.45647 7.4377L3.47897 6.9277C3.43642 6.90353 3.38826 6.89097 3.33933 6.89127ZM16.059 5.10627C16.0243 4.9964 15.9591 4.89867 15.8709 4.82448C15.7827 4.7503 15.6753 4.70274 15.5611 4.68734L14.6322 4.55377L14.2133 3.70984C14.1574 3.61274 14.0769 3.53208 13.9799 3.476C13.8829 3.41991 13.7728 3.39038 13.6608 3.39038C13.5487 3.39038 13.4386 3.41991 13.3417 3.476C13.2447 3.53208 13.1642 3.61274 13.1083 3.70984L12.6893 4.55377L11.7604 4.68734C11.6449 4.70085 11.5357 4.74724 11.4458 4.82099C11.3559 4.89475 11.2891 4.99277 11.2533 5.1034C11.2175 5.21403 11.2142 5.33261 11.2438 5.44506C11.2734 5.5575 11.3347 5.65908 11.4204 5.7377L12.0943 6.39949L11.9304 7.32234C11.9094 7.43676 11.9216 7.5548 11.9658 7.66244C12.0099 7.77008 12.084 7.86277 12.1793 7.92949C12.2724 7.99752 12.3829 8.03764 12.498 8.04517C12.613 8.0527 12.7278 8.02731 12.829 7.97199L13.6608 7.53484L14.4925 7.97199C14.5802 8.01932 14.6782 8.04434 14.7779 8.04484C14.8683 8.04649 14.958 8.02792 15.0403 7.99047C15.1227 7.95302 15.1956 7.89765 15.2538 7.8284C15.312 7.75915 15.354 7.67778 15.3767 7.59022C15.3994 7.50267 15.4022 7.41114 15.385 7.32234L15.2211 6.39949L15.895 5.7377C15.9796 5.65896 16.04 5.55772 16.069 5.44587C16.0981 5.33402 16.0946 5.21621 16.059 5.10627ZM14.6929 6.07163C14.6575 6.10697 14.6309 6.15005 14.6151 6.19748C14.5993 6.2449 14.5947 6.29536 14.6018 6.34484L14.7779 7.4377L13.8004 6.9277C13.7577 6.90377 13.7097 6.8912 13.6608 6.8912C13.6118 6.8912 13.5638 6.90377 13.5211 6.9277L12.5315 7.42556L12.75 6.34484C12.7534 6.29288 12.7441 6.24086 12.723 6.19328C12.7018 6.14569 12.6694 6.10394 12.6286 6.07163L11.8454 5.28841L12.9383 5.13056C12.9866 5.12466 13.0326 5.1065 13.0719 5.07781C13.1112 5.04912 13.1425 5.01084 13.1629 4.96663L13.6668 3.97699L14.1586 4.96663C14.179 5.01084 14.2103 5.04912 14.2496 5.07781C14.2889 5.1065 14.3349 5.12466 14.3833 5.13056L15.4761 5.30663L14.6929 6.07163Z" fill="#676B89"></path>
      <path d="M11.2686 10.2852H9.37433L9.76897 8.97377C9.88968 8.58165 9.85172 8.15781 9.66326 7.79337C9.4748 7.42894 9.15087 7.15299 8.76111 7.02484C8.64917 6.98795 8.53082 6.97456 8.41347 6.98553C8.29612 6.9965 8.1823 7.03158 8.07914 7.08857C7.97597 7.14557 7.88569 7.22325 7.81394 7.31676C7.7422 7.41027 7.69053 7.51758 7.66218 7.63199L7.60147 7.88699C7.3725 8.80585 6.89823 9.64526 6.22933 10.3156L5.88326 10.6556C5.79532 10.5448 5.68369 10.4551 5.55656 10.3931C5.42944 10.3311 5.29004 10.2984 5.14861 10.2973H4.7054C4.45629 10.2973 4.2172 10.3954 4.03992 10.5704C3.86265 10.7455 3.76145 10.9833 3.75826 11.2323V15.1423C3.75826 15.3935 3.85804 15.6345 4.03567 15.8121C4.21329 15.9897 4.4542 16.0895 4.7054 16.0895H5.14861C5.31165 16.0891 5.47179 16.0464 5.61335 15.9655C5.7549 15.8846 5.87302 15.7683 5.95611 15.6281L6.04111 15.6706C6.58985 15.9446 7.19454 16.088 7.8079 16.0895H9.98754C10.3479 16.0912 10.703 16.0034 11.0209 15.8338C11.3389 15.6642 11.6097 15.4183 11.809 15.1181C12.2331 14.4838 12.4593 13.7378 12.4586 12.9748V11.4631C12.4586 11.3074 12.4278 11.1532 12.3678 11.0095C12.3079 10.8658 12.22 10.7354 12.1093 10.6259C11.9987 10.5163 11.8674 10.4298 11.7231 10.3714C11.5788 10.3129 11.4243 10.2836 11.2686 10.2852ZM5.46433 15.1423C5.46433 15.2325 5.4285 15.319 5.36474 15.3828C5.30098 15.4465 5.2145 15.4823 5.12433 15.4823H4.7054C4.61522 15.4823 4.52874 15.4465 4.46498 15.3828C4.40122 15.319 4.3654 15.2325 4.3654 15.1423V11.2323C4.3654 11.1422 4.40122 11.0557 4.46498 10.9919C4.52874 10.9282 4.61522 10.8923 4.7054 10.8923H5.14861C5.23451 10.8985 5.31488 10.937 5.37348 11.0001C5.43208 11.0632 5.46455 11.1462 5.46433 11.2323V15.1423ZM11.8393 12.9748C11.8419 13.6227 11.6517 14.2568 11.2929 14.7963C11.1494 15.0109 10.9552 15.1868 10.7275 15.3086C10.4999 15.4304 10.2457 15.4942 9.98754 15.4945H7.8079C7.28953 15.494 6.77832 15.3734 6.31433 15.1423L6.07147 15.0209V11.2931L6.63004 10.7345C7.37738 9.98728 7.90822 9.05148 8.16611 8.02663L8.22683 7.7777C8.24485 7.7111 8.28851 7.65435 8.34826 7.61984C8.3789 7.60647 8.41197 7.59957 8.4454 7.59957C8.47883 7.59957 8.5119 7.60647 8.54254 7.61984C8.66219 7.65963 8.77282 7.72262 8.86811 7.8052C8.9634 7.88778 9.04147 7.98833 9.09786 8.10111C9.15425 8.21389 9.18785 8.33668 9.19674 8.46246C9.20564 8.58824 9.18964 8.71454 9.14968 8.83413L8.63968 10.5402C8.62649 10.5854 8.62401 10.6331 8.63244 10.6795C8.64087 10.7259 8.65998 10.7696 8.68826 10.8073C8.71584 10.8458 8.75237 10.8769 8.79468 10.8981C8.83699 10.9192 8.88382 10.9298 8.93111 10.9288H11.2322C11.3071 10.9288 11.3813 10.9435 11.4506 10.9722C11.5198 11.0009 11.5827 11.0429 11.6357 11.0959C11.6887 11.1489 11.7308 11.2118 11.7595 11.2811C11.7881 11.3503 11.8029 11.4245 11.8029 11.4995L11.8393 12.9748ZM6.67861 4.43234L6.48433 5.55556C6.46096 5.67986 6.4737 5.80826 6.52105 5.92555C6.56839 6.04283 6.64836 6.14409 6.75147 6.21734C6.86561 6.30243 7.00376 6.34919 7.14611 6.35091C7.25601 6.34917 7.36404 6.32217 7.46183 6.27199L8.50004 5.7377L9.51397 6.27199C9.62546 6.33086 9.75134 6.35697 9.87704 6.3473C10.0028 6.33763 10.1232 6.29257 10.2243 6.21734C10.3264 6.14457 10.4057 6.0443 10.453 5.92822C10.5003 5.81213 10.5136 5.68501 10.4915 5.56163L10.3215 4.43234L11.1168 3.64306C11.2087 3.55618 11.274 3.44502 11.3052 3.3225C11.3363 3.19997 11.3321 3.07112 11.2929 2.95091C11.2537 2.83084 11.1818 2.72406 11.0852 2.64256C10.9887 2.56106 10.8714 2.50805 10.7465 2.48949L9.61111 2.32556L9.10718 1.28734C9.0505 1.17495 8.96372 1.0805 8.85653 1.01451C8.74933 0.948516 8.62592 0.913574 8.50004 0.913574C8.37416 0.913574 8.25075 0.948516 8.14356 1.01451C8.03636 1.0805 7.94959 1.17495 7.8929 1.28734L7.38897 2.31341L6.25361 2.47734C6.12866 2.49591 6.01135 2.54892 5.91484 2.63042C5.81832 2.71192 5.74642 2.81869 5.70718 2.93877C5.66549 3.06064 5.65993 3.19197 5.69117 3.31693C5.72241 3.44189 5.78912 3.55514 5.88326 3.64306L6.67861 4.43234ZM6.31433 3.07841L7.60754 2.8902C7.66596 2.89398 7.72419 2.88045 7.77495 2.85129C7.82571 2.82213 7.86674 2.77864 7.8929 2.72627L8.50004 1.55449C8.50537 1.54286 8.51392 1.53301 8.52468 1.5261C8.53545 1.51919 8.54797 1.51552 8.56076 1.51552C8.57354 1.51552 8.58606 1.51919 8.59683 1.5261C8.60759 1.53301 8.61614 1.54286 8.62147 1.55449L9.22861 2.72627C9.25043 2.77061 9.28295 2.80881 9.32323 2.83743C9.36351 2.86605 9.41028 2.88419 9.45933 2.8902L10.7525 3.07841C10.7651 3.08098 10.7768 3.08682 10.7864 3.09535C10.796 3.10388 10.8032 3.11479 10.8072 3.12699C10.813 3.13714 10.8161 3.14866 10.8161 3.16038C10.8161 3.1721 10.813 3.18362 10.8072 3.19377L9.87218 4.10449C9.83683 4.13982 9.81018 4.18291 9.79438 4.23034C9.77857 4.27776 9.77403 4.32822 9.78111 4.3777L10.0058 5.65877C10.0099 5.67169 10.0091 5.68567 10.0035 5.69802C9.99784 5.71036 9.98784 5.72018 9.9754 5.72556C9.96489 5.73344 9.95211 5.7377 9.93897 5.7377C9.92583 5.7377 9.91305 5.73344 9.90254 5.72556L8.74897 5.11841C8.70632 5.09448 8.65823 5.08191 8.60933 5.08191C8.56042 5.08191 8.51233 5.09448 8.46968 5.11841L7.31004 5.72556C7.30048 5.73294 7.28873 5.73695 7.27665 5.73695C7.26456 5.73695 7.25282 5.73294 7.24326 5.72556C7.23081 5.72018 7.22081 5.71036 7.2152 5.69802C7.20959 5.68567 7.20877 5.67169 7.2129 5.65877L7.43754 4.3777C7.44463 4.32822 7.44008 4.27776 7.42428 4.23034C7.40847 4.18291 7.38183 4.13982 7.34647 4.10449L6.41147 3.19377C6.40561 3.18362 6.40252 3.1721 6.40252 3.16038C6.40252 3.14866 6.40561 3.13714 6.41147 3.12699C6.3957 3.12788 6.38007 3.12363 6.36693 3.11487C6.35379 3.10611 6.34385 3.09331 6.33861 3.07841H6.31433ZM4.45647 8.04484C4.54691 8.04649 4.63657 8.02792 4.71891 7.99047C4.80124 7.95302 4.87417 7.89765 4.93236 7.8284C4.99056 7.75915 5.03254 7.67778 5.05525 7.59022C5.07796 7.50267 5.08081 7.41114 5.06361 7.32234L4.89968 6.39949L5.57968 5.7377C5.66536 5.65908 5.72665 5.5575 5.75627 5.44506C5.7859 5.33261 5.78261 5.21403 5.7468 5.1034C5.71099 4.99277 5.64416 4.89475 5.55426 4.82099C5.46437 4.74724 5.35518 4.70085 5.23968 4.68734L4.31076 4.55377L3.89183 3.70984C3.83593 3.61274 3.75543 3.53208 3.65843 3.476C3.56143 3.41991 3.45137 3.39038 3.33933 3.39038C3.22728 3.39038 3.11722 3.41991 3.02022 3.476C2.92323 3.53208 2.84272 3.61274 2.78683 3.70984L2.3679 4.55377L1.43897 4.68734C1.32347 4.70085 1.21429 4.74724 1.12439 4.82099C1.03449 4.89475 0.967664 4.99277 0.931853 5.1034C0.896042 5.21403 0.892753 5.33261 0.922379 5.44506C0.952004 5.5575 1.0133 5.65908 1.09897 5.7377L1.7729 6.39949L1.60897 7.32234C1.58794 7.43676 1.60022 7.5548 1.64435 7.66244C1.68848 7.77008 1.7626 7.86277 1.8579 7.92949C1.95097 7.99752 2.0615 8.03764 2.17654 8.04517C2.29159 8.0527 2.40639 8.02731 2.50754 7.97199L3.33933 7.53484L4.17111 7.97199C4.25881 8.01932 4.35681 8.04434 4.45647 8.04484ZM3.33933 6.89127C3.29039 6.89097 3.24224 6.90353 3.19968 6.9277L2.21004 7.42556L2.42861 6.34484C2.43199 6.29288 2.42271 6.24086 2.40156 6.19328C2.38041 6.14569 2.34802 6.10394 2.30718 6.07163L1.52397 5.28841L2.61683 5.13056C2.66514 5.12466 2.71115 5.1065 2.75047 5.07781C2.78979 5.04912 2.82111 5.01084 2.84147 4.96663L3.3454 3.97699L3.83718 4.96663C3.85754 5.01084 3.88886 5.04912 3.92818 5.07781C3.9675 5.1065 4.01351 5.12466 4.06183 5.13056L5.15468 5.30663L4.37147 6.07163C4.33611 6.10697 4.30947 6.15005 4.29366 6.19748C4.27785 6.2449 4.27331 6.29536 4.2804 6.34484L4.45647 7.4377L3.47897 6.9277C3.43642 6.90353 3.38826 6.89097 3.33933 6.89127ZM16.059 5.10627C16.0243 4.9964 15.9591 4.89867 15.8709 4.82448C15.7827 4.7503 15.6753 4.70274 15.5611 4.68734L14.6322 4.55377L14.2133 3.70984C14.1574 3.61274 14.0769 3.53208 13.9799 3.476C13.8829 3.41991 13.7728 3.39038 13.6608 3.39038C13.5487 3.39038 13.4386 3.41991 13.3417 3.476C13.2447 3.53208 13.1642 3.61274 13.1083 3.70984L12.6893 4.55377L11.7604 4.68734C11.6449 4.70085 11.5357 4.74724 11.4458 4.82099C11.3559 4.89475 11.2891 4.99277 11.2533 5.1034C11.2175 5.21403 11.2142 5.33261 11.2438 5.44506C11.2734 5.5575 11.3347 5.65908 11.4204 5.7377L12.0943 6.39949L11.9304 7.32234C11.9094 7.43676 11.9216 7.5548 11.9658 7.66244C12.0099 7.77008 12.084 7.86277 12.1793 7.92949C12.2724 7.99752 12.3829 8.03764 12.498 8.04517C12.613 8.0527 12.7278 8.02731 12.829 7.97199L13.6608 7.53484L14.4925 7.97199C14.5802 8.01932 14.6782 8.04434 14.7779 8.04484C14.8683 8.04649 14.958 8.02792 15.0403 7.99047C15.1227 7.95302 15.1956 7.89765 15.2538 7.8284C15.312 7.75915 15.354 7.67778 15.3767 7.59022C15.3994 7.50267 15.4022 7.41114 15.385 7.32234L15.2211 6.39949L15.895 5.7377C15.9796 5.65896 16.04 5.55772 16.069 5.44587C16.0981 5.33402 16.0946 5.21621 16.059 5.10627ZM14.6929 6.07163C14.6575 6.10697 14.6309 6.15005 14.6151 6.19748C14.5993 6.2449 14.5947 6.29536 14.6018 6.34484L14.7779 7.4377L13.8004 6.9277C13.7577 6.90377 13.7097 6.8912 13.6608 6.8912C13.6118 6.8912 13.5638 6.90377 13.5211 6.9277L12.5315 7.42556L12.75 6.34484C12.7534 6.29288 12.7441 6.24086 12.723 6.19328C12.7018 6.14569 12.6694 6.10394 12.6286 6.07163L11.8454 5.28841L12.9383 5.13056C12.9866 5.12466 13.0326 5.1065 13.0719 5.07781C13.1112 5.04912 13.1425 5.01084 13.1629 4.96663L13.6668 3.97699L14.1586 4.96663C14.179 5.01084 14.2103 5.04912 14.2496 5.07781C14.2889 5.1065 14.3349 5.12466 14.3833 5.13056L15.4761 5.30663L14.6929 6.07163Z" stroke="#676B89" stroke-width="0.4" mask="url(#path-1-outside-1_25_15272)"></path>
    </g>
    <defs>
      <clipPath id="clip0_25_15272">
        <rect width="17" height="17" fill="white"></rect>
      </clipPath>
    </defs>
  </symbol>
  <symbol fill="none" xmlns="http://www.w3.org/2000/svg" viewBox="0 0 18 18" id="logout">
    <path d="M12.75 12L15.75 9M15.75 9L12.75 6M15.75 9H5.25M9.75 12V12.75C9.75 13.3467 9.51295 13.919 9.09099 14.341C8.66903 14.7629 8.09674 15 7.5 15H4.5C3.90326 15 3.33097 14.7629 2.90901 14.341C2.48705 13.919 2.25 13.3467 2.25 12.75V5.25C2.25 4.65326 2.48705 4.08097 2.90901 3.65901C3.33097 3.23705 3.90326 3 4.5 3H7.5C8.09674 3 8.66903 3.23705 9.09099 3.65901C9.51295 4.08097 9.75 4.65326 9.75 5.25V6" stroke="#676B89" stroke-width="1.5" stroke-linecap="round" stroke-linejoin="round"></path>
  </symbol>
  <symbol fill="none" xmlns="http://www.w3.org/2000/svg" viewBox="0 0 24 24" id="notification">
    <g clip-path="url(#clip0_25_15244)">
      <path d="M10 5C10 4.46957 10.2107 3.96086 10.5858 3.58579C10.9609 3.21071 11.4696 3 12 3C12.5304 3 13.0391 3.21071 13.4142 3.58579C13.7893 3.96086 14 4.46957 14 5C15.1484 5.54303 16.1274 6.38833 16.8321 7.4453C17.5367 8.50227 17.9404 9.73107 18 11V14C18.0753 14.6217 18.2954 15.2171 18.6428 15.7381C18.9902 16.2592 19.4551 16.6914 20 17H4C4.54494 16.6914 5.00981 16.2592 5.35719 15.7381C5.70457 15.2171 5.92474 14.6217 6 14V11C6.05956 9.73107 6.4633 8.50227 7.16795 7.4453C7.8726 6.38833 8.85159 5.54303 10 5" stroke="#151522" stroke-width="1.5" stroke-linecap="round" stroke-linejoin="round"></path>
      <path d="M9 17V18C9 18.7956 9.31607 19.5587 9.87868 20.1213C10.4413 20.6839 11.2044 21 12 21C12.7956 21 13.5587 20.6839 14.1213 20.1213C14.6839 19.5587 15 18.7956 15 18V17" stroke="#151522" stroke-width="1.5" stroke-linecap="round" stroke-linejoin="round"></path>
    </g>
    <defs>
      <clipPath id="clip0_25_15244">
        <rect width="24" height="24" fill="white"></rect>
      </clipPath>
    </defs>
  </symbol>
  <symbol fill="none" xmlns="http://www.w3.org/2000/svg" viewBox="0 0 16 16" id="profile-circle">
    <path d="M8.08002 8.51999C8.03335 8.51332 7.97335 8.51332 7.92002 8.51999C6.74669 8.47999 5.81335 7.51999 5.81335 6.33999C5.81335 5.13332 6.78669 4.15332 8.00002 4.15332C9.20669 4.15332 10.1867 5.13332 10.1867 6.33999C10.18 7.51999 9.25335 8.47999 8.08002 8.51999Z" stroke="#676B89" stroke-width="1.3" stroke-linecap="round" stroke-linejoin="round"></path>
    <path d="M12.4934 12.92C11.3067 14.0067 9.73338 14.6667 8.00005 14.6667C6.26671 14.6667 4.69338 14.0067 3.50671 12.92C3.57338 12.2934 3.97338 11.68 4.68671 11.2C6.51338 9.98671 9.50005 9.98671 11.3134 11.2C12.0267 11.68 12.4267 12.2934 12.4934 12.92Z" stroke="#676B89" stroke-width="1.3" stroke-linecap="round" stroke-linejoin="round"></path>
    <path d="M8.00004 14.6668C11.6819 14.6668 14.6667 11.6821 14.6667 8.00016C14.6667 4.31826 11.6819 1.3335 8.00004 1.3335C4.31814 1.3335 1.33337 4.31826 1.33337 8.00016C1.33337 11.6821 4.31814 14.6668 8.00004 14.6668Z" stroke="#676B89" stroke-width="1.3" stroke-linecap="round" stroke-linejoin="round"></path>
  </symbol>
  <symbol fill="none" xmlns="http://www.w3.org/2000/svg" viewBox="0 0 18 16" id="Vector">
    <path d="M17.4394 10.8438C17.4761 10.9243 17.4965 11.0111 17.4996 11.0994C17.5026 11.1878 17.4883 11.2758 17.4572 11.3586C17.4262 11.4414 17.3792 11.5172 17.3189 11.5818C17.2585 11.6464 17.1861 11.6984 17.1056 11.735L9.70202 15.1002C9.55241 15.1689 9.38273 15.1799 9.2255 15.1312L0.475834 12.439C0.311738 12.3812 0.176365 12.2621 0.0980564 12.1068C0.0197477 11.9514 0.0045754 11.7718 0.0557159 11.6055C0.106856 11.4392 0.220344 11.2991 0.37242 11.2146C0.524496 11.1301 0.703368 11.1077 0.871588 11.1521L9.37761 13.7696L16.5483 10.51C16.6287 10.473 16.7156 10.4522 16.804 10.449C16.8924 10.4458 16.9806 10.4601 17.0635 10.4911C17.1463 10.5222 17.2222 10.5693 17.2867 10.6299C17.3513 10.6904 17.4032 10.7631 17.4394 10.8438ZM9.37761 11.0774L0.871588 8.45989C0.787091 8.4339 0.698303 8.42482 0.610293 8.43314C0.522284 8.44147 0.436776 8.46705 0.358653 8.50843C0.200876 8.59199 0.0827549 8.7348 0.0302747 8.90545C-0.0222055 9.0761 -0.00474587 9.26061 0.0788128 9.41839C0.162371 9.57616 0.305184 9.69428 0.475834 9.74676L9.2255 12.439C9.38273 12.4877 9.55241 12.4767 9.70202 12.408L17.1056 9.04275C17.188 9.00747 17.2625 8.95607 17.3248 8.89157C17.3871 8.82708 17.4359 8.7508 17.4683 8.66719C17.5007 8.58359 17.516 8.49436 17.5135 8.40474C17.5109 8.31512 17.4904 8.22691 17.4533 8.14531C17.4162 8.0637 17.3631 7.99033 17.2973 7.92951C17.2314 7.86869 17.154 7.82164 17.0697 7.79113C16.9854 7.76062 16.8959 7.74727 16.8063 7.75185C16.7168 7.75643 16.629 7.77885 16.5483 7.8178L9.37761 11.0774ZM0.0013335 6.44478C-0.0128006 6.16209 0.151424 5.90095 0.411895 5.79057L5.32584 3.71959C6.29301 3.31172 6.75338 2.8029 6.75338 1.01258C6.75325 0.910463 6.77639 0.809658 6.82102 0.717815C6.86566 0.625971 6.93063 0.545502 7.01101 0.482512C7.09138 0.419522 7.18505 0.375667 7.2849 0.354275C7.38475 0.332883 7.48817 0.334515 7.58729 0.359047L16.2959 2.50473C16.5961 2.57877 16.8081 2.84866 16.8081 3.15827V3.26057C16.8088 5.25146 16.8094 6.56592 14.371 7.59367C12.7388 8.28153 9.74038 9.69696 9.71077 9.71177C9.55915 9.78399 9.38591 9.79648 9.2255 9.74676L0.475834 7.05456C0.343744 7.01386 0.227366 6.93353 0.142484 6.82445C0.0576026 6.71536 0.00832449 6.58281 0.0013335 6.44478ZM2.64104 6.31218L9.37155 8.38384C10.12 8.03183 12.442 6.9462 13.8473 6.35391C15.3355 5.72663 15.4526 5.24405 15.4606 3.68594L8.06381 1.86264C7.93391 3.24374 7.41028 4.30178 5.84947 4.96002L2.64104 6.31218Z" fill="white"></path>
  </symbol>
  <symbol fill="none" xmlns="http://www.w3.org/2000/svg" viewBox="0 0 24 24" id="search">
    <g clip-path="url(#clip0_25_15241)">
      <path d="M10 17C13.866 17 17 13.866 17 10C17 6.13401 13.866 3 10 3C6.13401 3 3 6.13401 3 10C3 13.866 6.13401 17 10 17Z" stroke="#6E6E6E" stroke-width="1.5" stroke-linecap="round" stroke-linejoin="round"></path>
      <path d="M21 21L15 15" stroke="#6E6E6E" stroke-width="1.5" stroke-linecap="round" stroke-linejoin="round"></path>
    </g>
    <defs>
      <clipPath id="clip0_25_15241">
        <rect width="24" height="24" fill="white"></rect>
      </clipPath>
    </defs>
  </symbol>
</svg>